<?xml version="1.0" standalone="no"?>
<svg xmlns="http://www.w3.org/2000/svg" viewBox="0 0 169 70" width="169" height="70"><g fill="#800707" color="#800707" transform="translate(66.717 0) scale(0.35) "><svg width="100.0" height="100.0" x="0.0" y="0.0" viewBox="0 0 100 100"><path style="" d="M73.622,84.367c-0.6-0.232-1.797-0.272-4.381-0.306c-1.297-0.017-2.623-0.033-3.503-0.116  c-8.492-0.806-13.764-5.04-17.622-14.16c-2.653-6.272-2.291-14.13,0.964-21.019c3.357-7.103,6.048-10.331,7.83-12.468  c0.785-0.942,1.435-1.723,1.866-2.546c0.003-0.005,0.009-0.006,0.012-0.011c0.441-0.62,1.048-2.094,0.527-3.686  c-0.515-1.575-2.011-2.842-4.342-3.813c2.124-2.463,4.877-6.475,4.869-10.719c-0.004-2.855-1.244-5.373-3.679-7.48  c-1.104-0.955-2.109-1.439-2.989-1.439c-0.46,0-1.988,0.173-2.268,2.399c-0.071,0.565-0.228,0.767-0.607,1.257l-0.316,0.418  c-1.095,1.504,0.467,2.666,1.306,3.291c1.003,0.746,2.137,1.59,2.283,3.041c0.172,1.722-1.448,4.141-2.877,5.873  c-0.225-0.403-0.413-0.793-0.563-1.148c-0.295-0.7-0.574-1.362-1.196-1.846c-0.527-0.411-2.449-1.731-4.828-1.371  c-1.629,0.245-3.036,1.198-4.183,2.834c-0.271,0.388-0.605,0.826-1.022,1.13l-0.435,0.308c-2.474,1.723-7.625,5.31-12.056,21.899  c-5.035,18.85,1.855,35.601,18.433,44.807c5.347,2.969,11.63,4.542,17.491,4.542c2.92,0,5.738-0.392,8.279-1.195  c3.094-0.977,5.304-3.163,5.37-5.315C76.029,86.116,75.169,84.963,73.622,84.367z M52.605,12.203  c-0.204-0.154-0.46-0.343-0.637-0.495l0.075-0.098c0.443-0.574,0.904-1.168,1.05-2.331c0.037-0.298,0.101-0.436,0.103-0.469  c0.204,0.013,0.732,0.213,1.526,0.9c1.958,1.694,2.911,3.596,2.918,5.814c0.013,5.197-5.271,10.374-6.334,11.363  c-0.325,0.059-0.635-0.006-0.667-0.005c-0.002,0-0.004,0-0.004,0.001c0-0.002-0.073-0.232,0.204-0.858  c0.983-0.988,5.295-5.546,4.925-9.23C55.524,14.374,53.769,13.068,52.605,12.203z M69.953,90.743  c-7.094,2.24-16.531,0.996-24.036-3.173c-15.873-8.814-22.205-24.236-17.374-42.313c4.221-15.809,8.925-19.085,11.184-20.659  l0.471-0.334c0.686-0.499,1.179-1.145,1.532-1.649c0.785-1.121,1.695-1.765,2.707-1.918c1.175-0.178,2.412,0.361,3.148,0.932  c0.168,0.13,0.329,0.516,0.519,0.964c0.239,0.563,0.54,1.247,1.049,1.998c-0.09,0.088-0.162,0.192-0.218,0.304  c-0.622,1.275-0.68,2.332-0.174,3.145c0.43,0.687,1.235,1.082,2.21,1.082c0.396,0,0.813-0.065,1.207-0.188  c0.144-0.046,0.278-0.12,0.394-0.221c0.056-0.049,0.355-0.313,0.799-0.751c1.027,0.359,1.887,0.759,2.521,1.202  c-1.198-0.019-2.575,0.331-3.931,0.682l-0.6,0.155c-1.097,0.28-2.012,0.18-2.789-0.292c-1.575-0.951-2.111-3.125-2.117-3.147  c-0.14-0.591-0.749-0.95-1.323-0.818c-0.592,0.14-0.96,0.728-0.822,1.32c0.03,0.125,0.738,3.079,3.105,4.521  c1.297,0.791,2.808,0.975,4.488,0.552l0.613-0.158c1.33-0.345,3.554-0.921,4.092-0.444c0.153,0.137,0.2,0.55,0.127,1.106  c-0.01,0.076,0.009,0.146,0.014,0.22c-0.301,0.532-0.787,1.136-1.529,2.027c-1.855,2.223-4.654,5.581-8.131,12.938  c-3.52,7.448-3.894,15.978-1.003,22.819c4.219,9.968,10.035,14.603,19.446,15.494c0.945,0.09,2.335,0.109,3.679,0.126  c1.287,0.017,3.23,0.043,3.619,0.158c0.975,0.377,0.96,0.875,0.953,1.039C73.751,88.49,72.309,89.998,69.953,90.743z" fill="currentColor"></path></svg></g><line x1="67.766" y1="41" x2="100.666" y2="41" stroke="#d6af69" stroke-linecap="round"></line><path fill="#d6af69" fill-rule="nonzero" d="M10.22 10.63L10.22 10.63Q10.06 10.66 9.60 10.66Q9.14 10.66 8.93 10.49L8.93 10.49Q8.76 10.32 8.76 9.67Q8.76 9.02 8.88 8.68Q9 8.33 9.64 8.33Q10.27 8.33 10.85 8.64L10.85 8.64Q11.54 8.11 12.14 7.01Q12.74 5.90 12.74 4.73L12.74 4.73Q12.74 3.02 11.72 2.23Q10.70 1.44 8.57 1.44L8.57 1.44Q5.50 1.44 3.54 2.64Q1.58 3.84 1.58 5.18L1.58 5.18Q1.58 5.83 2.11 6.25Q2.64 6.67 3.17 6.82L3.17 6.82Q3.07 7.78 2.57 8.59L2.57 8.59Q1.63 8.45 0.82 7.62Q0 6.79 0 5.38L0 5.38Q0 3.02 2.71 1.51Q5.42 0 9.43 0L9.43 0Q12.65 0 14.52 1.20Q16.39 2.40 16.39 4.73L16.39 4.73Q16.39 6.36 15.17 7.67Q13.94 8.98 12.22 9.82L12.22 9.82Q12.62 10.22 12.95 10.97Q13.27 11.71 13.48 12.18Q13.68 12.65 13.80 12.94Q13.92 13.22 14.14 13.75L14.14 13.75Q15.07 16.30 15.83 17.51Q16.58 18.72 17.28 18.72L17.28 18.72Q17.42 18.72 17.50 18.70L17.50 18.70L17.74 19.56Q16.56 20.50 15.05 20.50Q13.54 20.50 12.91 19.72Q12.29 18.94 11.76 16.51L11.76 16.51Q11.69 16.27 11.35 14.76L11.35 14.76Q10.68 11.54 10.22 10.63ZM5.59 4.87L5.59 4.87Q5.59 4.32 5.02 3.67L5.02 3.67L5.04 3.50Q6.31 2.76 8.21 2.76L8.21 2.76Q8.95 2.76 9.31 2.88L9.31 2.88Q9.43 3.14 9.43 3.62L9.43 3.62Q9.43 4.68 8.20 9.67Q6.96 14.66 6.74 17.14L6.74 17.14Q5.33 17.54 3.60 17.54L3.60 17.54Q3.19 17.54 3 17.47L3 17.47Q3.12 15.94 4.36 11.20Q5.59 6.46 5.59 4.87ZM20.38 17.69L20.38 17.69Q18.72 17.69 17.78 16.52Q16.85 15.36 16.85 13.27L16.85 13.27Q16.85 10.61 18.28 8.69Q19.70 6.77 22.22 6.77L22.22 6.77L23.09 6.82Q23.50 6.60 24 6.60L24 6.60Q25.90 6.60 25.90 10.18L25.90 10.18Q26.88 10.13 27.89 9.91L27.89 9.91L28.27 9.82L28.42 10.75Q27.62 11.09 26.28 11.35L26.28 11.35L25.80 11.45Q25.34 13.97 23.95 15.83Q22.56 17.69 20.38 17.69ZM21.67 15.62L21.67 15.62Q22.68 15.62 23.48 14.33Q24.29 13.03 24.60 11.59L24.60 11.59Q22.03 11.59 22.03 9.67L22.03 9.67Q22.03 8.90 22.34 8.23L22.34 8.23L22.46 7.99Q22.37 7.94 22.22 7.94Q22.08 7.94 22.01 7.99L22.01 7.99Q21.41 8.38 20.88 9.79Q20.35 11.21 20.35 13.03L20.35 13.03Q20.35 15.62 21.67 15.62ZM34.13 14.26L34.13 14.26Q34.13 15.77 32.80 16.73Q31.46 17.69 29.76 17.69Q28.06 17.69 27.06 16.97Q26.06 16.25 26.06 15.70L26.06 15.70Q26.06 15.36 26.90 14.60Q27.74 13.85 28.32 13.68L28.32 13.68Q29.52 14.57 30.29 16.49L30.29 16.49Q31.18 16.42 31.18 15.65L31.18 15.65Q31.18 14.54 29.23 12.52Q27.29 10.49 27.29 9.29Q27.29 8.09 28.37 7.43Q29.45 6.77 30.97 6.77Q32.50 6.77 33.26 7.31Q34.03 7.85 34.03 8.77Q34.03 9.70 32.57 11.33L32.57 11.33Q32.74 11.50 33 11.77Q33.26 12.05 33.70 12.82Q34.13 13.58 34.13 14.26ZM31.82 10.49Q32.83 9.62 32.83 8.78Q32.83 7.94 31.68 7.94L31.68 7.94Q31.13 7.94 30.77 8.17Q30.41 8.40 30.41 8.69L30.41 8.69Q30.41 9.22 31.46 10.18L31.46 10.18L31.82 10.49ZM42.65 14.26L42.65 14.26Q42.65 15.77 41.32 16.73Q39.98 17.69 38.28 17.69Q36.58 17.69 35.58 16.97Q34.58 16.25 34.58 15.70L34.58 15.70Q34.58 15.36 35.42 14.60Q36.26 13.85 36.84 13.68L36.84 13.68Q38.04 14.57 38.81 16.49L38.81 16.49Q39.70 16.42 39.70 15.65L39.70 15.65Q39.70 14.54 37.75 12.52Q35.81 10.49 35.81 9.29Q35.81 8.09 36.89 7.43Q37.97 6.77 39.49 6.77Q41.02 6.77 41.78 7.31Q42.55 7.85 42.55 8.77Q42.55 9.70 41.09 11.33L41.09 11.33Q41.26 11.50 41.52 11.77Q41.78 12.05 42.22 12.82Q42.65 13.58 42.65 14.26ZM40.34 10.49Q41.35 9.62 41.35 8.78Q41.35 7.94 40.20 7.94L40.20 7.94Q39.65 7.94 39.29 8.17Q38.93 8.40 38.93 8.69L38.93 8.69Q38.93 9.22 39.98 10.18L39.98 10.18L40.34 10.49ZM47.11 17.69L47.11 17.69Q45.46 17.69 44.52 16.52Q43.58 15.36 43.58 13.27L43.58 13.27Q43.58 10.61 45.01 8.69Q46.44 6.77 48.96 6.77L48.96 6.77L49.82 6.82Q50.23 6.60 50.74 6.60L50.74 6.60Q52.63 6.60 52.63 10.18L52.63 10.18Q53.62 10.13 54.62 9.91L54.62 9.91L55.01 9.82L55.15 10.75Q54.36 11.09 53.02 11.35L53.02 11.35L52.54 11.45Q52.08 13.97 50.69 15.83Q49.30 17.69 47.11 17.69ZM48.41 15.62L48.41 15.62Q49.42 15.62 50.22 14.33Q51.02 13.03 51.34 11.59L51.34 11.59Q48.77 11.59 48.77 9.67L48.77 9.67Q48.77 8.90 49.08 8.23L49.08 8.23L49.20 7.99Q49.10 7.94 48.96 7.94Q48.82 7.94 48.74 7.99L48.74 7.99Q48.14 8.38 47.62 9.79Q47.09 11.21 47.09 13.03L47.09 13.03Q47.09 15.62 48.41 15.62ZM57.65 4.97L57.65 4.97Q57.65 4.51 57.54 4.30Q57.43 4.08 57.07 3.67L57.07 3.67L57.10 3.50Q58.37 2.76 60.26 2.76L60.26 2.76Q61.01 2.76 61.37 2.88L61.37 2.88Q61.49 3.12 61.49 3.88Q61.49 4.63 60.34 9.29L60.34 9.29Q60.86 9.50 61.54 9.50L61.54 9.50Q62.69 9.50 63.43 8.71Q64.18 7.92 64.40 7.00Q64.63 6.07 64.63 5.04L64.63 5.04Q64.63 3.14 63.61 2.29Q62.59 1.44 60.31 1.44L60.31 1.44Q57.34 1.44 55.37 2.64Q53.40 3.84 53.40 5.16L53.40 5.16Q53.40 5.83 53.92 6.25Q54.43 6.67 54.98 6.82L54.98 6.82Q54.89 7.68 54.38 8.59L54.38 8.59Q53.47 8.47 52.64 7.63Q51.82 6.79 51.82 5.42L51.82 5.42Q51.82 2.98 54.55 1.49Q57.29 0 60.94 0Q64.58 0 66.46 1.21Q68.33 2.42 68.33 4.97L68.33 4.97Q68.33 8.30 65.66 10.01L65.66 10.01Q64.22 10.94 62.21 10.94L62.21 10.94Q60.94 10.94 60.02 10.56L60.02 10.56Q59.02 14.66 58.80 17.14L58.80 17.14Q57.38 17.54 55.66 17.54L55.66 17.54Q55.25 17.54 55.06 17.47L55.06 17.47Q55.18 15.96 56.41 11.18Q57.65 6.41 57.65 4.97ZM67.70 13.25L67.70 13.25Q67.70 10.25 69.52 8.51Q71.33 6.77 73.63 6.77L73.63 6.77Q75.05 6.77 75.96 7.46Q76.87 8.16 76.87 9.32Q76.87 10.49 76.28 11.28Q75.70 12.07 74.86 12.50L74.86 12.50Q73.15 13.34 71.74 13.56L71.74 13.56L71.16 13.63Q71.33 15.89 73.01 15.89L73.01 15.89Q73.58 15.89 74.23 15.60Q74.88 15.31 75.24 15.02L75.24 15.02L75.60 14.74L76.18 15.50Q75.98 15.77 75.41 16.20Q74.83 16.63 74.33 16.92L74.33 16.92Q72.94 17.69 71.28 17.69Q69.62 17.69 68.66 16.51Q67.70 15.34 67.70 13.25ZM71.14 12.46Q72.36 12.24 73.08 11.42Q73.80 10.61 73.80 9.31Q73.80 8.02 73.03 8.02L73.03 8.02Q72.12 8.02 71.63 9.56Q71.14 11.11 71.14 12.46L71.14 12.46ZM76.68 22.78L76.68 22.78Q76.56 22.49 76.56 21.50Q76.56 20.52 77.50 16.21Q78.43 11.90 78.43 9.58L78.43 9.58Q78.43 9.12 78.22 8.60Q78 8.09 77.76 7.80L77.76 7.80L77.54 7.54L77.57 7.22Q78.70 6.86 81.55 6.86L81.55 6.86Q81.82 7.37 81.89 8.28L81.89 8.28Q83.74 6.77 84.97 6.77Q86.21 6.77 86.96 7.80Q87.72 8.83 87.72 10.82L87.72 10.82Q87.72 14.30 86.45 16.00Q85.18 17.69 83.23 17.69L83.23 17.69Q82.22 17.69 81.55 17.40L81.55 17.40L81.31 17.30L81.48 16.37Q81.70 16.42 81.98 16.42L81.98 16.42Q82.61 16.42 83.08 15.84Q83.54 15.26 83.78 14.38L83.78 14.38Q84.26 12.60 84.26 11.09L84.26 11.09Q84.26 8.93 83.38 8.93L83.38 8.93Q82.68 8.93 81.89 9.48L81.89 9.48Q81.79 11.16 80.90 15.36Q80.02 19.56 80.02 22.13L80.02 22.13Q78.72 22.66 76.68 22.78ZM88.73 13.25L88.73 13.25Q88.73 10.25 90.54 8.51Q92.35 6.77 94.66 6.77L94.66 6.77Q96.07 6.77 96.98 7.46Q97.90 8.16 97.90 9.32Q97.90 10.49 97.31 11.28Q96.72 12.07 95.88 12.50L95.88 12.50Q94.18 13.34 92.76 13.56L92.76 13.56L92.18 13.63Q92.35 15.89 94.03 15.89L94.03 15.89Q94.61 15.89 95.26 15.60Q95.90 15.31 96.26 15.02L96.26 15.02L96.62 14.74L97.20 15.50Q97.01 15.77 96.43 16.20Q95.86 16.63 95.35 16.92L95.35 16.92Q93.96 17.69 92.30 17.69Q90.65 17.69 89.69 16.51Q88.73 15.34 88.73 13.25ZM92.16 12.46Q93.38 12.24 94.10 11.42Q94.82 10.61 94.82 9.31Q94.82 8.02 94.06 8.02L94.06 8.02Q93.14 8.02 92.65 9.56Q92.16 11.11 92.16 12.46L92.16 12.46ZM98.88 17.47L98.88 17.47L98.71 17.47Q98.66 17.28 98.66 16.60Q98.66 15.91 99.31 12.91Q99.96 9.91 99.96 9.48L99.96 9.48Q99.96 8.74 99.29 7.85L99.29 7.85L99.07 7.56L99.10 7.25Q100.39 6.89 103.25 6.89L103.25 6.89Q103.54 7.51 103.54 8.64L103.54 8.64Q103.80 8.21 104.64 7.49Q105.48 6.77 106.37 6.77L106.37 6.77Q107.66 6.77 107.66 9.02L107.66 9.02Q107.54 9.17 107.34 9.40Q107.14 9.62 106.52 10.03Q105.91 10.44 105.34 10.54L105.34 10.54Q105.31 10.54 104.93 9.89Q104.54 9.24 104.35 9.24L104.35 9.24Q103.75 9.46 103.30 9.96L103.30 9.96Q102.19 14.93 102.19 16.39L102.19 16.39Q102.19 16.92 102.22 17.14L102.22 17.14Q101.38 17.47 98.88 17.47ZM110.50 17.69L110.50 17.69Q108.84 17.69 107.90 16.52Q106.97 15.36 106.97 13.27L106.97 13.27Q106.97 10.61 108.40 8.69Q109.82 6.77 112.34 6.77L112.34 6.77L113.21 6.82Q113.62 6.60 114.12 6.60L114.12 6.60Q116.02 6.60 116.02 10.18L116.02 10.18Q117.00 10.13 118.01 9.91L118.01 9.91L118.39 9.82L118.54 10.75Q117.74 11.09 116.40 11.35L116.40 11.35L115.92 11.45Q115.46 13.97 114.07 15.83Q112.68 17.69 110.50 17.69ZM111.79 15.62L111.79 15.62Q112.80 15.62 113.60 14.33Q114.41 13.03 114.72 11.59L114.72 11.59Q112.15 11.59 112.15 9.67L112.15 9.67Q112.15 8.90 112.46 8.23L112.46 8.23L112.58 7.99Q112.49 7.94 112.34 7.94Q112.20 7.94 112.13 7.99L112.13 7.99Q111.53 8.38 111.00 9.79Q110.47 11.21 110.47 13.03L110.47 13.03Q110.47 15.62 111.79 15.62ZM117.24 17.47L117.24 17.47L116.78 17.47Q116.78 16.34 117.47 13.15Q118.15 9.96 118.15 9.53L118.15 9.53Q118.15 8.74 117.48 7.85L117.48 7.85L117.26 7.56L117.29 7.25Q118.58 6.89 121.44 6.89L121.44 6.89Q121.75 7.30 121.78 8.38L121.78 8.38Q123.86 6.77 125.30 6.77L125.30 6.77Q126.17 6.77 126.68 7.37Q127.20 7.97 127.20 8.87Q127.20 9.77 126.65 11.98Q126.10 14.18 126.10 14.94Q126.10 15.70 126.29 15.70L126.29 15.70Q126.43 15.70 127.30 15.24L127.30 15.24L127.58 15.10L128.02 15.94Q127.80 16.13 127.44 16.42Q127.08 16.70 126.11 17.20Q125.14 17.69 124.37 17.69L124.37 17.69Q122.62 17.69 122.62 15.70L122.62 15.70Q122.62 14.86 123.16 12.60Q123.70 10.34 123.70 9.70Q123.70 9.05 123.29 9.05L123.29 9.05Q122.59 9.05 121.58 9.65L121.58 9.65Q121.51 10.06 121.10 11.81L121.10 11.81Q120.26 15.58 120.26 17.14L120.26 17.14Q119.42 17.47 117.24 17.47ZM134.30 7.97L134.30 7.97Q133.34 7.97 132.77 9.56Q132.19 11.16 132.19 12.98L132.19 12.98Q132.19 15.86 133.97 15.86L133.97 15.86Q134.54 15.86 135.19 15.59Q135.84 15.31 136.22 15.05L136.22 15.05L136.58 14.76L137.14 15.50Q136.94 15.77 136.37 16.20Q135.79 16.63 135.29 16.92Q134.78 17.21 133.99 17.45Q133.20 17.69 132.43 17.69L132.43 17.69Q130.56 17.69 129.62 16.46Q128.69 15.24 128.69 13.18L128.69 13.18Q128.69 10.32 130.26 8.54Q131.83 6.77 134.30 6.77L134.30 6.77Q135.91 6.77 136.86 7.50Q137.81 8.23 137.81 9.30Q137.81 10.37 137.14 11.14L137.14 11.14Q136.54 11.14 135.74 10.87Q134.95 10.61 134.54 10.22L134.54 10.22L134.90 8.11Q134.69 7.97 134.30 7.97ZM143.28 8.26Q143.28 9.26 142.63 11.72Q141.98 14.18 141.98 14.94Q141.98 15.70 142.20 15.70L142.20 15.70Q142.34 15.70 143.30 15.24L143.30 15.24L143.59 15.10L144 15.94Q143.78 16.13 143.42 16.42Q143.06 16.70 142.08 17.20Q141.10 17.69 140.26 17.69Q139.42 17.69 138.94 17.17Q138.46 16.66 138.46 15.78Q138.46 14.90 139.06 12.66Q139.66 10.42 139.66 9.74L139.66 9.74Q139.66 8.74 139.03 7.85L139.03 7.85L138.82 7.56L138.84 7.25Q140.11 6.89 142.97 6.89L142.97 6.89Q143.28 7.25 143.28 8.26ZM140.54 4.26Q140.06 3.79 140.06 3.00Q140.06 2.21 140.72 1.61Q141.38 1.01 142.25 1.01Q143.11 1.01 143.59 1.49Q144.07 1.97 144.07 2.75Q144.07 3.53 143.39 4.13Q142.70 4.73 141.86 4.73Q141.02 4.73 140.54 4.26ZM145.49 17.47L145.49 17.47L145.03 17.47Q145.03 16.34 145.72 13.15Q146.40 9.96 146.40 9.53L146.40 9.53Q146.40 8.74 145.73 7.85L145.73 7.85L145.51 7.56L145.54 7.25Q146.83 6.89 149.69 6.89L149.69 6.89Q150 7.30 150.02 8.38L150.02 8.38Q152.11 6.77 153.55 6.77L153.55 6.77Q154.42 6.77 154.93 7.37Q155.45 7.97 155.45 8.87Q155.45 9.77 154.90 11.98Q154.34 14.18 154.34 14.94Q154.34 15.70 154.54 15.70L154.54 15.70Q154.68 15.70 155.54 15.24L155.54 15.24L155.83 15.10L156.26 15.94Q156.05 16.13 155.69 16.42Q155.33 16.70 154.36 17.20Q153.38 17.69 152.62 17.69L152.62 17.69Q150.86 17.69 150.86 15.70L150.86 15.70Q150.86 14.86 151.40 12.60Q151.94 10.34 151.94 9.70Q151.94 9.05 151.54 9.05L151.54 9.05Q150.84 9.05 149.83 9.65L149.83 9.65Q149.76 10.06 149.35 11.81L149.35 11.81Q148.51 15.58 148.51 17.14L148.51 17.14Q147.67 17.47 145.49 17.47ZM160.39 17.69L160.39 17.69Q158.74 17.69 157.80 16.52Q156.86 15.36 156.86 13.27L156.86 13.27Q156.86 10.61 158.29 8.69Q159.72 6.77 162.24 6.77L162.24 6.77L163.10 6.82Q163.51 6.60 164.02 6.60L164.02 6.60Q165.91 6.60 165.91 10.18L165.91 10.18Q166.90 10.13 167.90 9.91L167.90 9.91L168.29 9.82L168.43 10.75Q167.64 11.09 166.30 11.35L166.30 11.35L165.82 11.45Q165.36 13.97 163.97 15.83Q162.58 17.69 160.39 17.69ZM161.69 15.62L161.69 15.62Q162.70 15.62 163.50 14.33Q164.30 13.03 164.62 11.59L164.62 11.59Q162.05 11.59 162.05 9.67L162.05 9.67Q162.05 8.90 162.36 8.23L162.36 8.23L162.48 7.99Q162.38 7.94 162.24 7.94Q162.10 7.94 162.02 7.99L162.02 7.99Q161.42 8.38 160.90 9.79Q160.37 11.21 160.37 13.03L160.37 13.03Q160.37 15.62 161.69 15.62Z" transform="translate(0, 47)"></path></svg>